<svg xmlns="http://www.w3.org/2000/svg" viewBox="0 0 256 256">
  <defs>
    <linearGradient id="grad" x1="0%" y1="0%" x2="100%" y2="100%">
      <stop offset="0%" style="stop-color:#a855f7;stop-opacity:1" />
      <stop offset="100%" style="stop-color:#7c3aed;stop-opacity:1" />
    </linearGradient>
  </defs>
  <!-- Background -->
  <rect width="256" height="256" fill="#0f172a" rx="52"/>
  
  <!-- Lightning bolt symbol -->
  <path d="M128 32 L96 128 L136 128 L112 224 L176 96 L128 96 Z" fill="url(#grad)" stroke="none"/>
  
  <!-- Highlight accent -->
  <circle cx="140" cy="100" r="8" fill="#c084fc" opacity="0.6"/>
</svg>
<path d="M0 0 C0.95865967 0.00765381 1.91731934 0.01530762 2.9050293 0.02319336 C15.24366359 0.4060199 25.23462149 5.18730594 34.25 13.625 C34.92417969 14.24632812 35.59835937 14.86765625 36.29296875 15.5078125 C40.74868759 20.04109705 43.76375601 25.00383549 46.625 30.625 C46.95894775 31.27718506 47.29289551 31.92937012 47.63696289 32.60131836 C51.33945164 40.25300144 52.55447136 47.86274474 52.50878906 56.30664062 C52.5122937 57.12255173 52.51579834 57.93846283 52.51940918 58.77909851 C52.52813231 61.44657175 52.52241094 64.11377459 52.515625 66.78125 C52.51697436 68.65254771 52.51891714 70.52384508 52.52142334 72.3951416 C52.52436185 76.30529132 52.52011805 80.21534928 52.51074219 84.12548828 C52.49934846 89.11848506 52.50591476 94.11126677 52.51788712 99.10425568 C52.52514016 102.96488035 52.522802 106.82545468 52.51763153 110.68608093 C52.51630455 112.52634202 52.51790911 114.36660779 52.52259064 116.2068634 C52.52771279 118.78581728 52.51986651 121.36443063 52.50878906 123.94335938 C52.51283752 124.69167526 52.51688599 125.43999115 52.52105713 126.21098328 C52.41518181 139.62585891 47.25727811 151.98969215 39.25 162.625 C38.78851562 163.25148438 38.32703125 163.87796875 37.8515625 164.5234375 C30.35053915 174.01368251 18.16580942 180.14695203 6.25 181.625 C-9.62941717 182.61389784 -21.18097946 179.05794336 -33.4375 168.9375 C-43.3452594 159.7100269 -51.35699952 144.4338026 -51.90390015 130.78384399 C-51.92194083 129.26170919 -51.93457161 127.73950424 -51.94287109 126.21728516 C-51.95104858 125.38233521 -51.95922607 124.54738525 -51.96765137 123.68713379 C-51.99241615 120.92945042 -52.00900522 118.17181851 -52.0234375 115.4140625 C-52.02876118 114.46650463 -52.03408485 113.51894676 -52.03956985 112.54267502 C-52.06627233 107.51983196 -52.08565005 102.49701341 -52.10009766 97.47412109 C-52.11338924 93.3423831 -52.14115752 89.21114455 -52.18212891 85.07958984 C-52.23181207 80.06814941 -52.25626273 75.05715876 -52.26332474 70.04548264 C-52.26998168 68.14872701 -52.2850559 66.25197919 -52.30921555 64.35536575 C-52.54688204 44.55638898 -48.1067773 28.7759306 -34.234375 13.94921875 C-24.63899358 4.97240752 -13.11854225 -0.15673982 0 0 Z " fill="#FEFEFE" transform="translate(999.75,1341.375)"/>
<path d="M0 0 C12.78004039 9.24166855 20.80545085 22.74967236 24.125 38.125 C24.95391755 44.74379581 24.75982823 51.42921451 24.68359375 58.0859375 C24.67933079 59.97107616 24.67701364 61.85622011 24.67652893 63.74136353 C24.67041054 67.66294703 24.64793259 71.58394878 24.61206055 75.50537109 C24.56660433 80.51168431 24.55202111 85.51747668 24.54832363 90.52397728 C24.54388134 94.40521286 24.52855635 98.28634123 24.5094471 102.16753006 C24.50062344 104.0133642 24.49386541 105.8592095 24.48928642 107.70505905 C24.48016886 110.28582449 24.45771915 112.86613685 24.43139648 115.44677734 C24.43073181 116.1950177 24.43006714 116.94325806 24.42938232 117.71417236 C24.24193117 131.13741637 19.14144518 143.47075281 11.125 154.125 C10.67511719 154.73988281 10.22523437 155.35476563 9.76171875 155.98828125 C2.18622694 165.61235676 -8.89234836 171.20849219 -20.875 173.125 C-34.76008354 174.12380908 -46.70577733 171.93272988 -57.875 163.125 C-58.56207031 162.61195313 -59.24914062 162.09890625 -59.95703125 161.5703125 C-70.09093034 153.47094382 -77.87910451 138.97235534 -79.875 126.125 C-79.98759669 123.31472682 -80.0525467 120.52795209 -80.06787109 117.71728516 C-80.07604858 116.88233521 -80.08422607 116.04738525 -80.09265137 115.18713379 C-80.11741615 112.42945042 -80.13400522 109.67181851 -80.1484375 106.9140625 C-80.15376118 105.96650463 -80.15908485 105.01894676 -80.16456985 104.04267502 C-80.19127233 99.01983196 -80.21065005 93.99701341 -80.22509766 88.97412109 C-80.23838924 84.8423831 -80.26615752 80.71114455 -80.30712891 76.57958984 C-80.35681207 71.56814941 -80.38126273 66.55715876 -80.38832474 61.54548264 C-80.39498168 59.64872701 -80.4100559 57.75197919 -80.43421555 55.85536575 C-80.67180024 36.06320318 -76.238501 20.26243741 -62.35546875 5.44921875 C-58.2461814 1.59878414 -53.84148094 -1.24896449 -48.875 -3.875 C-48.06933594 -4.30941406 -47.26367188 -4.74382812 -46.43359375 -5.19140625 C-31.27587943 -11.99933115 -13.57462647 -8.45856122 0 0 Z " fill="#FEFEFE" transform="translate(1027.875,496.875)"/>
</svg>
